<svg width="30" height="30" viewBox="0 0 30 30" fill="none" xmlns="http://www.w3.org/2000/svg">
<g clip-path="url(#clip0_2038_82)">
<path d="M29.9372 13.2346C29.9372 12.0029 29.374 10.8486 28.4143 10.0803C28.456 9.88361 28.4767 9.69463 28.4767 9.50867C28.4767 7.97441 27.3273 6.70016 25.8339 6.48069C25.8682 6.30445 25.8845 6.13155 25.8845 5.95933C25.8845 4.32589 24.5803 2.99133 22.9464 2.90655C22.9196 2.9022 22.8924 2.89851 22.8642 2.89851C22.8506 2.89851 22.8374 2.90019 22.8235 2.90052C22.8099 2.90019 22.7967 2.89851 22.7828 2.89851C22.6273 2.89851 22.4708 2.91225 22.3055 2.94073C22.0183 1.43796 20.6919 0.318848 19.1018 0.318848C17.2989 0.318848 15.832 1.76666 15.832 3.54653V25.6333C15.832 27.886 17.6886 29.7181 19.9706 29.7181C21.4846 29.7181 22.8588 28.9096 23.5846 27.6253C23.7472 27.6601 23.9034 27.6816 24.0602 27.6916C25.0457 27.7536 26.0054 27.435 26.7509 26.7893C27.4963 26.1436 27.9424 25.25 28.0069 24.273C28.0337 23.8659 27.9876 23.4574 27.8701 23.054C29.1587 22.1523 29.9161 20.7246 29.9161 19.1602C29.9161 18.026 29.5023 16.9371 28.7466 16.0696C29.507 15.3097 29.9372 14.2931 29.9372 13.2346ZM28.8984 19.1609C28.8984 20.3283 28.3613 21.3991 27.4403 22.1158C26.7587 21.045 25.5495 20.3611 24.2401 20.3611C23.959 20.3611 23.7309 20.5863 23.7309 20.8637C23.7309 21.1411 23.959 21.3663 24.2401 21.3663C25.3743 21.3663 26.4073 22.0676 26.814 23.1113C26.9532 23.4759 27.015 23.8448 26.9909 24.2083C26.944 24.9173 26.6205 25.5657 26.0794 26.0341C25.5383 26.5028 24.8434 26.7357 24.1267 26.6888C23.9251 26.6757 23.7166 26.6328 23.4705 26.5541C23.2193 26.473 22.9474 26.5956 22.8439 26.8356C22.3533 27.9761 21.2252 28.7133 19.9702 28.7133C18.2498 28.7133 16.8501 27.3318 16.8501 25.6337V3.54686C16.8501 2.32153 17.86 1.32438 19.1015 1.32438C20.255 1.32438 21.2042 2.18281 21.3278 3.30394C20.3939 3.832 19.7621 4.82346 19.7621 5.95967C19.7621 6.23743 19.9902 6.46226 20.2713 6.46226C20.5524 6.46226 20.7805 6.23743 20.7805 5.95967C20.7805 4.83954 21.6934 3.9275 22.8228 3.90572C23.9522 3.9275 24.8651 4.83954 24.8651 5.95933C24.8651 6.16774 24.8254 6.38352 24.7432 6.61974C24.7239 6.67536 24.7147 6.73367 24.7157 6.7923C24.7161 6.80604 24.7167 6.81877 24.7181 6.83083C24.7161 6.83787 24.7147 6.84256 24.7147 6.84256C24.6746 6.99837 24.7127 7.16389 24.8169 7.28753C24.9211 7.41117 25.0766 7.47818 25.2416 7.46779C25.2769 7.46545 25.3122 7.46109 25.3746 7.45238C26.5231 7.45238 27.4576 8.37481 27.4576 9.50834C27.4576 9.7 27.4227 9.89668 27.3483 10.1279C27.2794 10.3406 27.3612 10.5728 27.549 10.6975C28.3752 11.2467 28.876 12.148 28.9116 13.124C28.9116 13.1254 28.9113 13.1267 28.9113 13.128C28.9113 14.8134 27.5221 16.1848 25.8146 16.1848C24.107 16.1848 22.7176 14.8134 22.7176 13.128C22.7176 12.8503 22.4894 12.6254 22.2084 12.6254C21.9273 12.6254 21.6992 12.8503 21.6992 13.128C21.6992 15.368 23.5452 17.19 25.8146 17.19C26.5709 17.19 27.2777 16.984 27.8874 16.6311C28.5392 17.3314 28.8984 18.2271 28.8984 19.1609Z" fill="#E3C496"/>
<path d="M10.987 0.319336C9.39689 0.319336 8.07091 1.43845 7.78405 2.94122C7.61839 2.91274 7.46189 2.899 7.30641 2.899C7.29283 2.899 7.27959 2.90068 7.26567 2.90101C7.2521 2.90068 7.23886 2.899 7.22494 2.899C7.19676 2.899 7.1696 2.90269 7.14279 2.90704C5.5089 2.99181 4.20498 4.32638 4.20498 5.95982C4.20498 6.13204 4.22161 6.30494 4.25556 6.48118C2.76222 6.70065 1.61276 7.9749 1.61276 9.50916C1.61276 9.69479 1.63347 9.88376 1.67522 10.0808C0.71553 10.8491 0.152344 12.0034 0.152344 13.2351C0.152344 14.2936 0.582117 15.3101 1.3422 16.0707C0.586191 16.9382 0.172373 18.0272 0.172373 19.1614C0.172373 20.7258 0.929738 22.1532 2.21838 23.0552C2.10058 23.4586 2.05475 23.867 2.08191 24.2745C2.14641 25.2512 2.59214 26.1448 3.33763 26.7905C4.08311 27.4365 5.04009 27.7551 6.02829 27.6928C6.18275 27.6827 6.34027 27.6606 6.50356 27.6261C7.22935 28.9108 8.60354 29.7193 10.1176 29.7193C12.3995 29.7193 14.2561 27.8868 14.2561 25.6345V3.54702C14.2568 1.76715 12.7899 0.319336 10.987 0.319336ZM13.2384 25.6338C13.2384 27.3319 11.8387 28.7134 10.1183 28.7134C8.86324 28.7134 7.73517 27.9763 7.24497 26.8357C7.16315 26.6457 6.97576 26.5295 6.77615 26.5295C6.72387 26.5295 6.67058 26.5372 6.6183 26.5543C6.37252 26.633 6.16408 26.6759 5.9621 26.6889C5.24275 26.7355 4.55056 26.5027 4.00978 26.0342C3.46866 25.5658 3.14514 24.9175 3.0983 24.2085C3.0725 23.8198 3.14073 23.4258 3.3013 23.0374C3.30368 23.0317 3.303 23.0253 3.30504 23.0197C3.76061 21.9957 4.73931 21.3601 5.88402 21.3601C6.16544 21.3601 6.39323 21.1349 6.39323 20.8575C6.39323 20.58 6.16544 20.3549 5.88402 20.3549C4.54717 20.3549 3.33763 21.0274 2.64272 22.1103C1.7258 21.3936 1.19079 20.3254 1.19079 19.161C1.19079 18.2272 1.55064 17.3316 2.20175 16.6316C2.81144 16.9845 3.51856 17.1905 4.27491 17.1905C6.54429 17.1905 8.39035 15.3684 8.39035 13.1285C8.39035 12.8508 8.16256 12.6259 7.88114 12.6259C7.59972 12.6259 7.37193 12.8508 7.37193 13.1285C7.37193 14.8139 5.9828 16.1853 4.27491 16.1853C2.56702 16.1853 1.17789 14.8139 1.17789 13.1285C1.17789 13.1279 1.17755 13.1272 1.17755 13.1265C1.21252 12.1498 1.71324 11.2478 2.53986 10.698C2.72759 10.5733 2.80906 10.3415 2.74049 10.1287C2.66581 9.89717 2.63118 9.70049 2.63118 9.50883C2.63118 8.37765 3.56168 7.45655 4.73422 7.45655C4.7366 7.45655 4.73931 7.45655 4.74169 7.45655C4.77665 7.46125 4.81162 7.4656 4.84726 7.46795C5.01191 7.478 5.16909 7.41065 5.27296 7.28634C5.37718 7.1617 5.41453 6.9955 5.37277 6.83936C5.37277 6.83903 5.37175 6.83467 5.37005 6.82898C5.37107 6.81725 5.37209 6.80653 5.37243 6.79715C5.37413 6.73684 5.36496 6.67686 5.34493 6.6199C5.26278 6.38301 5.22306 6.16689 5.22306 5.95915C5.22306 4.83936 6.13557 3.92698 7.26534 3.90554C8.3951 3.92732 9.30761 4.83936 9.30761 5.95948C9.30761 6.23725 9.5354 6.46208 9.81682 6.46208C10.0982 6.46208 10.326 6.23725 10.326 5.95948C10.326 4.82328 9.69427 3.83182 8.76038 3.30376C8.88395 2.18263 9.83311 1.3242 10.9866 1.3242C12.2281 1.3242 13.238 2.32135 13.238 3.54668L13.2384 25.6338Z" fill="#E3C496"/>
</g>
<defs>
<clipPath id="clip0_2038_82">
<rect width="30" height="30" fill="white"/>
</clipPath>
</defs>
</svg>
