<svg width="38" height="38" viewBox="0 0 38 38" fill="none" xmlns="http://www.w3.org/2000/svg">
<g clip-path="url(#clip0_1515_5)">
<path d="M15.3069 27.759V15.0908H13.8035C12.7268 15.6647 11.6862 16.304 10.6875 17.005V18.6556C11.5781 18.0453 12.9889 17.1831 13.6753 16.8103H13.7038V27.759H15.3069ZM18.1284 24.6596C18.24 26.1796 19.5391 27.9989 22.173 27.9989C25.1608 27.9989 26.923 25.4671 26.923 21.1803C26.923 16.587 25.0681 14.8438 22.2846 14.8438C20.0854 14.8438 18.0168 16.4398 18.0168 19.1401C18.0168 21.8951 19.9738 23.3439 21.9973 23.3439C23.769 23.3439 24.9185 22.4509 25.2819 21.4676H25.346C25.3365 24.5931 24.2511 26.6071 22.2466 26.6071C20.6696 26.6071 19.8526 25.5384 19.7529 24.6596H18.1284ZM25.1418 19.1568C25.1418 20.8098 23.8141 21.9593 22.3298 21.9593C20.9024 21.9593 19.6128 21.0496 19.6128 19.1092C19.6128 17.1546 20.995 16.2355 22.3868 16.2355C23.8901 16.2355 25.1418 17.1808 25.1418 19.1568Z" fill="#E3C496"/>
<path d="M8.3125 0C8.62744 0 8.92949 0.125111 9.15219 0.347811C9.37489 0.57051 9.5 0.872555 9.5 1.1875V2.375H28.5V1.1875C28.5 0.872555 28.6251 0.57051 28.8478 0.347811C29.0705 0.125111 29.3726 0 29.6875 0C30.0024 0 30.3045 0.125111 30.5272 0.347811C30.7499 0.57051 30.875 0.872555 30.875 1.1875V2.375H33.25C34.5098 2.375 35.718 2.87545 36.6088 3.76624C37.4996 4.65704 38 5.86522 38 7.125V33.25C38 34.5098 37.4996 35.718 36.6088 36.6088C35.718 37.4996 34.5098 38 33.25 38H4.75C3.49022 38 2.28204 37.4996 1.39124 36.6088C0.500445 35.718 0 34.5098 0 33.25V7.125C0 5.86522 0.500445 4.65704 1.39124 3.76624C2.28204 2.87545 3.49022 2.375 4.75 2.375H7.125V1.1875C7.125 0.872555 7.25011 0.57051 7.47281 0.347811C7.69551 0.125111 7.99756 0 8.3125 0ZM2.375 9.5V33.25C2.375 33.8799 2.62522 34.484 3.07062 34.9294C3.51602 35.3748 4.12011 35.625 4.75 35.625H33.25C33.8799 35.625 34.484 35.3748 34.9294 34.9294C35.3748 34.484 35.625 33.8799 35.625 33.25V9.5H2.375Z" fill="#E3C496"/>
</g>
<defs>
<clipPath id="clip0_1515_5">
<rect width="38" height="38" fill="white"/>
</clipPath>
</defs>
</svg>
