<svg width="59" height="45" viewBox="0 0 59 45" fill="none" xmlns="http://www.w3.org/2000/svg">
<g clip-path="url(#clip0_1492_474)">
<path d="M53.4688 3.96306C53.9577 3.96306 54.4267 4.15836 54.7725 4.506C55.1182 4.85363 55.3125 5.32513 55.3125 5.81676V39.1832C55.3125 39.6749 55.1182 40.1464 54.7725 40.494C54.4267 40.8416 53.9577 41.0369 53.4688 41.0369H5.53125C5.04226 41.0369 4.57329 40.8416 4.22752 40.494C3.88175 40.1464 3.6875 39.6749 3.6875 39.1832V5.81676C3.6875 5.32513 3.88175 4.85363 4.22752 4.506C4.57329 4.15836 5.04226 3.96306 5.53125 3.96306H53.4688ZM5.53125 0.255676C4.06427 0.255676 2.65738 0.841574 1.62007 1.88448C0.582755 2.92738 0 4.34187 0 5.81676L0 39.1832C0 40.6581 0.582755 42.0726 1.62007 43.1155C2.65738 44.1584 4.06427 44.7443 5.53125 44.7443H53.4688C54.9357 44.7443 56.3426 44.1584 57.3799 43.1155C58.4172 42.0726 59 40.6581 59 39.1832V5.81676C59 4.34187 58.4172 2.92738 57.3799 1.88448C56.3426 0.841574 54.9357 0.255676 53.4688 0.255676H5.53125Z" fill="#E3C496"/>
<path d="M25.8125 13.2315C25.8125 12.7399 26.0067 12.2684 26.3525 11.9208C26.6983 11.5731 27.1672 11.3778 27.6562 11.3778H46.0937C46.5827 11.3778 47.0517 11.5731 47.3975 11.9208C47.7432 12.2684 47.9375 12.7399 47.9375 13.2315C47.9375 13.7232 47.7432 14.1947 47.3975 14.5423C47.0517 14.8899 46.5827 15.0852 46.0937 15.0852H27.6562C27.1672 15.0852 26.6983 14.8899 26.3525 14.5423C26.0067 14.1947 25.8125 13.7232 25.8125 13.2315ZM20.296 10.0654C20.4677 10.2376 20.6039 10.4422 20.6969 10.6674C20.7898 10.8926 20.8377 11.134 20.8377 11.3778C20.8377 11.6217 20.7898 11.8631 20.6969 12.0883C20.6039 12.3135 20.4677 12.5181 20.296 12.6903L14.7647 18.2513C14.5935 18.424 14.39 18.5609 14.166 18.6544C13.942 18.7478 13.7019 18.7959 13.4594 18.7959C13.2168 18.7959 12.9767 18.7478 12.7527 18.6544C12.5287 18.5609 12.3253 18.424 12.154 18.2513L10.3102 16.3977C10.1388 16.2253 10.0028 16.0207 9.91006 15.7955C9.81728 15.5703 9.76953 15.329 9.76953 15.0852C9.76953 14.593 9.96403 14.1209 10.3102 13.7728C10.6564 13.4247 11.126 13.2292 11.6156 13.2292C12.1052 13.2292 12.5748 13.4247 12.921 13.7728L13.4594 14.3178L17.6852 10.0654C17.8565 9.89281 18.06 9.75584 18.284 9.66239C18.508 9.56894 18.7481 9.52084 18.9906 9.52084C19.2331 9.52084 19.4733 9.56894 19.6973 9.66239C19.9213 9.75584 20.1247 9.89281 20.296 10.0654ZM25.8125 28.0611C25.8125 27.5695 26.0067 27.098 26.3525 26.7503C26.6983 26.4027 27.1672 26.2074 27.6562 26.2074H46.0937C46.5827 26.2074 47.0517 26.4027 47.3975 26.7503C47.7432 27.098 47.9375 27.5695 47.9375 28.0611C47.9375 28.5527 47.7432 29.0242 47.3975 29.3719C47.0517 29.7195 46.5827 29.9148 46.0937 29.9148H27.6562C27.1672 29.9148 26.6983 29.7195 26.3525 29.3719C26.0067 29.0242 25.8125 28.5527 25.8125 28.0611ZM20.296 24.895C20.4677 25.0672 20.6039 25.2717 20.6969 25.4969C20.7898 25.7221 20.8377 25.9636 20.8377 26.2074C20.8377 26.4512 20.7898 26.6926 20.6969 26.9179C20.6039 27.1431 20.4677 27.3476 20.296 27.5198L14.7647 33.0809C14.5935 33.2535 14.39 33.3905 14.166 33.4839C13.942 33.5774 13.7019 33.6255 13.4594 33.6255C13.2168 33.6255 12.9767 33.5774 12.7527 33.4839C12.5287 33.3905 12.3253 33.2535 12.154 33.0809L10.3102 31.2272C10.1388 31.0548 10.0028 30.8502 9.91006 30.6251C9.81728 30.3999 9.76953 30.1585 9.76953 29.9148C9.76953 29.671 9.81728 29.4297 9.91006 29.2045C10.0028 28.9793 10.1388 28.7747 10.3102 28.6024C10.4817 28.43 10.6852 28.2933 10.9091 28.2C11.1331 28.1068 11.3732 28.0588 11.6156 28.0588C11.858 28.0588 12.0981 28.1068 12.3221 28.2C12.5461 28.2933 12.7496 28.43 12.921 28.6024L13.4594 29.1474L17.6852 24.895C17.8565 24.7224 18.06 24.5854 18.284 24.4919C18.508 24.3985 18.7481 24.3504 18.9906 24.3504C19.2331 24.3504 19.4733 24.3985 19.6973 24.4919C19.9213 24.5854 20.1247 24.7224 20.296 24.895Z" fill="#E3C496"/>
</g>
<defs>
<clipPath id="clip0_1492_474">
<rect width="59" height="45" fill="white"/>
</clipPath>
</defs>
</svg>
