<svg width="38" height="38" viewBox="0 0 38 38" fill="none" xmlns="http://www.w3.org/2000/svg">
<g clip-path="url(#clip0_1515_13)">
<path fill-rule="evenodd" clip-rule="evenodd" d="M26.125 35.625C28.6446 35.625 31.0609 34.6241 32.8425 32.8425C34.6241 31.0609 35.625 28.6446 35.625 26.125C35.625 23.6054 34.6241 21.1891 32.8425 19.4075C31.0609 17.6259 28.6446 16.625 26.125 16.625C23.6054 16.625 21.1891 17.6259 19.4075 19.4075C17.6259 21.1891 16.625 23.6054 16.625 26.125C16.625 28.6446 17.6259 31.0609 19.4075 32.8425C21.1891 34.6241 23.6054 35.625 26.125 35.625ZM38 26.125C38 29.2744 36.7489 32.2949 34.5219 34.5219C32.2949 36.7489 29.2744 38 26.125 38C22.9756 38 19.9551 36.7489 17.7281 34.5219C15.5011 32.2949 14.25 29.2744 14.25 26.125C14.25 22.9756 15.5011 19.9551 17.7281 17.7281C19.9551 15.5011 22.9756 14.25 26.125 14.25C29.2744 14.25 32.2949 15.5011 34.5219 17.7281C36.7489 19.9551 38 22.9756 38 26.125Z" fill="#E3C496"/>
<path d="M22.4164 28.367C22.5281 29.7825 23.6467 30.8845 25.6536 31.0175V32.0625H26.5442V31.0104C28.6223 30.8655 29.8359 29.754 29.8359 28.1438C29.8359 26.676 28.9097 25.9208 27.2472 25.5312L26.5442 25.365V22.515C27.4372 22.6171 28.0024 23.104 28.1378 23.7785H29.7006C29.5889 22.4129 28.4181 21.3465 26.5442 21.2301V20.1875H25.6536V21.2562C23.8794 21.4296 22.6729 22.496 22.6729 24.0065C22.6729 25.3412 23.5707 26.1915 25.0646 26.5382L25.6536 26.6831V29.7041C24.7416 29.5664 24.1359 29.0629 24.0006 28.367H22.4164ZM25.6464 25.1513C24.7701 24.9494 24.2951 24.5337 24.2951 23.9115C24.2951 23.2132 24.8081 22.6907 25.6536 22.5387V25.1513H25.6464ZM26.6724 26.923C27.7388 27.17 28.2281 27.569 28.2281 28.2744C28.2281 29.0795 27.6177 29.6305 26.5442 29.7326V26.8945L26.6724 26.923Z" fill="#E3C496"/>
<path d="M2.375 0C1.74511 0 1.14102 0.250223 0.695621 0.695621C0.250223 1.14102 0 1.74511 0 2.375L0 21.375C0 22.0049 0.250223 22.609 0.695621 23.0544C1.14102 23.4998 1.74511 23.75 2.375 23.75H12.0721C12.2099 22.933 12.4165 22.1397 12.6849 21.375H7.125C7.125 20.1152 6.62456 18.907 5.73376 18.0162C4.84296 17.1254 3.63478 16.625 2.375 16.625V7.125C3.63478 7.125 4.84296 6.62456 5.73376 5.73376C6.62456 4.84296 7.125 3.63478 7.125 2.375H30.875C30.875 3.63478 31.3754 4.84296 32.2662 5.73376C33.157 6.62456 34.3652 7.125 35.625 7.125V15.504C36.5275 16.3115 37.3279 17.233 38 18.2448V2.375C38 1.74511 37.7498 1.14102 37.3044 0.695621C36.859 0.250223 36.2549 0 35.625 0L2.375 0Z" fill="#E3C496"/>
<path d="M23.7453 12.0722L23.75 11.8751C23.7495 11.0571 23.5378 10.2532 23.1354 9.54102C22.733 8.82889 22.1534 8.23275 21.453 7.81034C20.7525 7.38792 19.9549 7.15355 19.1372 7.12991C18.3196 7.10628 17.5097 7.29419 16.786 7.67544C16.0624 8.05669 15.4494 8.61837 15.0065 9.30607C14.5636 9.99376 14.3058 10.7842 14.2581 11.6008C14.2104 12.4173 14.3743 13.2324 14.7341 13.967C15.0938 14.7016 15.6372 15.3309 16.3115 15.7939C18.3629 13.8399 20.9517 12.5438 23.7453 12.0722Z" fill="#E3C496"/>
</g>
<defs>
<clipPath id="clip0_1515_13">
<rect width="38" height="38" fill="white"/>
</clipPath>
</defs>
</svg>
