<svg width="31" height="31" viewBox="0 0 31 31" fill="none" xmlns="http://www.w3.org/2000/svg">
<path d="M27.125 1.9375C27.6389 1.9375 28.1317 2.14163 28.495 2.50498C28.8584 2.86833 29.0625 3.36114 29.0625 3.875V19.375C29.0625 19.8889 28.8584 20.3817 28.495 20.745C28.1317 21.1084 27.6389 21.3125 27.125 21.3125H8.55212C7.5245 21.3127 6.53903 21.7211 5.8125 22.4479L1.9375 26.3229V3.875C1.9375 3.36114 2.14163 2.86833 2.50498 2.50498C2.86833 2.14163 3.36114 1.9375 3.875 1.9375H27.125ZM3.875 0C2.84729 0 1.86166 0.408258 1.13496 1.13496C0.408258 1.86166 0 2.84729 0 3.875L0 28.6614C4.07163e-05 28.8531 0.0569481 29.0405 0.16352 29.1998C0.270091 29.3591 0.421536 29.4833 0.598686 29.5565C0.775836 29.6297 0.970728 29.6488 1.15869 29.6112C1.34666 29.5736 1.51925 29.4811 1.65462 29.3454L7.18231 23.8177C7.54558 23.4543 8.03831 23.2501 8.55212 23.25H27.125C28.1527 23.25 29.1383 22.8417 29.865 22.115C30.5917 21.3883 31 20.4027 31 19.375V3.875C31 2.84729 30.5917 1.86166 29.865 1.13496C29.1383 0.408258 28.1527 0 27.125 0L3.875 0Z" fill="#343434"/>
<path d="M5.80859 6.78119C5.80859 6.52426 5.91066 6.27786 6.09233 6.09618C6.27401 5.9145 6.52042 5.81244 6.77734 5.81244H24.2148C24.4718 5.81244 24.7182 5.9145 24.8999 6.09618C25.0815 6.27786 25.1836 6.52426 25.1836 6.78119C25.1836 7.03812 25.0815 7.28452 24.8999 7.4662C24.7182 7.64787 24.4718 7.74994 24.2148 7.74994H6.77734C6.52042 7.74994 6.27401 7.64787 6.09233 7.4662C5.91066 7.28452 5.80859 7.03812 5.80859 6.78119ZM5.80859 11.6249C5.80859 11.368 5.91066 11.1216 6.09233 10.9399C6.27401 10.7583 6.52042 10.6562 6.77734 10.6562H24.2148C24.4718 10.6562 24.7182 10.7583 24.8999 10.9399C25.0815 11.1216 25.1836 11.368 25.1836 11.6249C25.1836 11.8819 25.0815 12.1283 24.8999 12.3099C24.7182 12.4916 24.4718 12.5937 24.2148 12.5937H6.77734C6.52042 12.5937 6.27401 12.4916 6.09233 12.3099C5.91066 12.1283 5.80859 11.8819 5.80859 11.6249ZM5.80859 16.4687C5.80859 16.2118 5.91066 15.9654 6.09233 15.7837C6.27401 15.602 6.52042 15.4999 6.77734 15.4999H16.4648C16.7218 15.4999 16.9682 15.602 17.1499 15.7837C17.3315 15.9654 17.4336 16.2118 17.4336 16.4687C17.4336 16.7256 17.3315 16.972 17.1499 17.1537C16.9682 17.3354 16.7218 17.4374 16.4648 17.4374H6.77734C6.52042 17.4374 6.27401 17.3354 6.09233 17.1537C5.91066 16.972 5.80859 16.7256 5.80859 16.4687Z" fill="#343434"/>
</svg>
