<svg width="65" height="60" viewBox="0 0 65 60" fill="none" xmlns="http://www.w3.org/2000/svg">
<path opacity="0.1" d="M62.6743 47.8692C62.6743 51.3899 61.5263 54.2983 59.2302 56.5944C57.0872 58.7374 54.2553 59.8089 50.7347 59.8089C47.214 59.8089 44.3056 58.5843 42.0095 56.1352C39.7134 53.686 38.5654 50.0888 38.5654 45.3435C38.5654 39.3737 40.4022 32.4089 44.076 24.4491C47.9028 16.4894 53.0307 8.52958 59.4598 0.569792L64.2816 4.93237C59.5363 11.2083 56.0922 16.872 53.9492 21.9234C51.8062 26.8218 50.5816 31.4905 50.2754 35.9296H50.7347C54.2553 35.9296 57.0872 37.0776 59.2302 39.3737C61.5263 41.5167 62.6743 44.3486 62.6743 47.8692ZM24.1 47.8692C24.1 51.3899 23.0285 54.2983 20.8855 56.5944C18.7425 58.7374 15.9106 59.8089 12.39 59.8089C8.86928 59.8089 5.9609 58.5843 3.66481 56.1352C1.36872 53.686 0.220674 50.0888 0.220674 45.3435C0.220674 39.3737 2.05755 32.4089 5.73129 24.4491C9.40503 16.4894 14.4564 8.52958 20.8855 0.569792L25.9369 4.93237C21.1916 11.2083 17.671 16.872 15.3749 21.9234C13.2318 26.8218 12.0073 31.4905 11.7011 35.9296H12.39C15.9106 35.9296 18.7425 37.0776 20.8855 39.3737C23.0285 41.5167 24.1 44.3486 24.1 47.8692Z" fill="#E3C496"/>
</svg>
