<svg width="65" height="60" viewBox="0 0 65 60" fill="none" xmlns="http://www.w3.org/2000/svg">
<path opacity="0.1" d="M2.32568 12.1308C2.32568 8.61008 3.47373 5.7017 5.76982 3.40561C7.91283 1.26259 10.7447 0.191081 14.2653 0.191081C17.786 0.191081 20.6944 1.41566 22.9905 3.86483C25.2866 6.31399 26.4346 9.9112 26.4346 14.6565C26.4346 20.6263 24.5978 27.5911 20.924 35.5509C17.0972 43.5106 11.9693 51.4704 5.54021 59.4302L0.718421 55.0676C5.46367 48.7917 8.90781 43.128 11.0508 38.0766C13.1938 33.1782 14.4184 28.5095 14.7246 24.0704H14.2653C10.7447 24.0704 7.91283 22.9224 5.76982 20.6263C3.47373 18.4833 2.32568 15.6514 2.32568 12.1308ZM40.9 12.1308C40.9 8.61008 41.9715 5.7017 44.1145 3.40561C46.2575 1.26259 49.0894 0.191081 52.61 0.191081C56.1307 0.191081 59.0391 1.41566 61.3352 3.86483C63.6313 6.31399 64.7793 9.9112 64.7793 14.6565C64.7793 20.6263 62.9425 27.5911 59.2687 35.5509C55.595 43.5106 50.5436 51.4704 44.1145 59.4302L39.0631 55.0676C43.8084 48.7917 47.329 43.128 49.6251 38.0766C51.7682 33.1782 52.9927 28.5095 53.2989 24.0704H52.61C49.0894 24.0704 46.2575 22.9224 44.1145 20.6263C41.9715 18.4833 40.9 15.6514 40.9 12.1308Z" fill="#E3C496"/>
</svg>
