<svg width="20" height="20" viewBox="0 0 20 20" fill="none" xmlns="http://www.w3.org/2000/svg">
<path d="M8.75 8.75008V1.76758C8.75 1.43606 8.8817 1.11812 9.11612 0.883695C9.35054 0.649274 9.66848 0.517578 10 0.517578C10.3315 0.517578 10.6495 0.649274 10.8839 0.883695C11.1183 1.11812 11.25 1.43606 11.25 1.76758V2.50008H17.5C17.6941 2.50008 17.8854 2.54526 18.059 2.63204C18.2326 2.71883 18.3836 2.84483 18.5 3.00008L19.7188 4.62508C19.7999 4.73326 19.8438 4.86485 19.8438 5.00008C19.8438 5.13531 19.7999 5.26689 19.7188 5.37508L18.5 7.00008C18.3836 7.15532 18.2326 7.28133 18.059 7.36811C17.8854 7.4549 17.6941 7.50008 17.5 7.50008H11.25V20.0001H8.75V13.7501H2.5C2.30594 13.7501 2.11455 13.7049 1.94098 13.6181C1.76741 13.5313 1.61643 13.4053 1.5 13.2501L0.28125 11.6251C0.200111 11.5169 0.15625 11.3853 0.15625 11.2501C0.15625 11.1148 0.200111 10.9833 0.28125 10.8751L1.5 9.25008C1.61643 9.09483 1.76741 8.96883 1.94098 8.88204C2.11455 8.79526 2.30594 8.75008 2.5 8.75008H8.75ZM10 12.5001V10.0001H2.5L1.5625 11.2501L2.5 12.5001H10ZM10 6.25008H17.5L18.4375 5.00008L17.5 3.75008H10V6.25008Z" fill="#E3C496"/>
</svg>
