<svg width="23" height="23" viewBox="0 0 23 23" fill="none" xmlns="http://www.w3.org/2000/svg">
<g clip-path="url(#clip0_2300_516)">
<path d="M1.14844 11.5524C1.14844 16.2247 4.25958 20.169 8.50894 21.5199C9.19186 21.737 9.84301 21.1917 9.84301 20.4751V15.0399C9.84301 14.7223 9.58564 14.4649 9.26801 14.4649H7.83057C7.513 14.4649 7.25557 14.2075 7.25557 13.8899V12.1273C7.25557 11.8097 7.513 11.5523 7.83057 11.5523H9.26801C9.58564 11.5523 9.84301 11.2949 9.84301 10.9773V9.26387C9.84301 6.66336 11.499 5.20708 13.8795 5.20708C14.4438 5.20708 15.0709 5.27018 15.6629 5.34723C15.9465 5.38414 16.1565 5.62747 16.1565 5.91346V7.49264C16.1565 7.8102 15.8991 8.06764 15.5815 8.06764H14.811C13.569 8.06764 13.2585 8.69176 13.2585 9.52388V10.9773C13.2585 11.2949 13.516 11.5523 13.8335 11.5523H15.327C15.6809 11.5523 15.9507 11.8687 15.8949 12.2181L15.613 13.9807C15.5684 14.2596 15.3277 14.4649 15.0452 14.4649H13.8309C13.5144 14.4649 13.2574 14.7206 13.2559 15.0371L13.23 20.4684C13.2265 21.1873 13.8791 21.7362 14.5638 21.5173C18.7984 20.164 21.8484 16.2218 21.8484 11.5524C21.8484 5.83129 17.1909 1.15039 11.4984 1.15039C5.80594 1.15039 1.14844 5.83129 1.14844 11.5524Z" stroke="#E3C496" stroke-width="1.25" stroke-linecap="round"/>
</g>
<defs>
<clipPath id="clip0_2300_516">
<rect width="23" height="23" fill="white"/>
</clipPath>
</defs>
</svg>
