<svg width="35" height="39" viewBox="0 0 35 39" fill="none" xmlns="http://www.w3.org/2000/svg">
<path d="M13.3732 1.37323H5.95775C3.91001 1.37323 2.25 3.03324 2.25 5.08098V27.3275C2.25 29.3752 3.91001 31.0352 5.95775 31.0352H15.2271M13.3732 1.37323H13.6914C14.6747 1.37323 15.6177 1.76386 16.3131 2.45921L23.4105 9.55662C24.1059 10.252 24.4965 11.195 24.4965 12.1784V12.4965M13.3732 1.37323V8.78872C13.3732 10.8365 15.0332 12.4965 17.081 12.4965H24.4965M24.4965 12.4965V16.2042" stroke="#868686" stroke-width="2.31734" stroke-linecap="round"/>
<g clip-path="url(#clip0_3319_693)">
<path d="M24.0957 31.5845C27.2811 31.5845 29.8633 29.0022 29.8633 25.8169C29.8633 22.6315 27.2811 20.0493 24.0957 20.0493C20.9104 20.0493 18.3281 22.6315 18.3281 25.8169C18.3281 29.0022 20.9104 31.5845 24.0957 31.5845Z" stroke="#868686" stroke-width="1.64789" stroke-linecap="round" stroke-linejoin="round"/>
<path d="M20.9657 30.6699L19.9688 38.176L24.0885 35.7042L28.2082 38.176L27.2112 30.6617" stroke="#868686" stroke-width="1.64789" stroke-linecap="round" stroke-linejoin="round"/>
</g>
<defs>
<clipPath id="clip0_3319_693">
<rect width="19.7746" height="19.7746" fill="white" transform="translate(14.2109 19.2253)"/>
</clipPath>
</defs>
</svg>
