<svg width="38" height="38" viewBox="0 0 38 38" fill="none" xmlns="http://www.w3.org/2000/svg">
<path d="M13.4883 13.756L17.4427 18.4063L13.4907 23.0565C12.5737 23.9608 11.4099 24.5739 10.1454 24.8186C8.88097 25.0632 7.57241 24.9286 6.38427 24.4316C5.19612 23.9346 4.18143 23.0975 3.46778 22.0254C2.75412 20.9533 2.37335 19.6942 2.37335 18.4063C2.37335 17.1184 2.75412 15.8592 3.46778 14.7871C4.18143 13.715 5.19612 12.8779 6.38427 12.3809C7.57241 11.8839 8.88097 11.7493 10.1454 11.994C11.4099 12.2386 12.5737 12.8517 13.4907 13.756H13.4883ZM18.9983 16.5728L15.2363 12.1434L15.2031 12.1078C13.9574 10.8624 12.3705 10.0144 10.6429 9.67096C8.91533 9.3275 7.1247 9.50401 5.49743 10.1782C3.87017 10.8523 2.47934 11.9939 1.50081 13.4585C0.522283 14.923 0 16.6449 0 18.4063C0 20.1676 0.522283 21.8895 1.50081 23.3541C2.47934 24.8186 3.87017 25.9602 5.49743 26.6343C7.1247 27.3085 8.91533 27.485 10.6429 27.1415C12.3705 26.7981 13.9574 25.9501 15.2031 24.7048L15.2363 24.6691L18.9983 20.2398L22.7603 24.6691L22.7936 24.7048C24.0392 25.9501 25.6262 26.7981 27.3538 27.1415C29.0814 27.485 30.872 27.3085 32.4992 26.6343C34.1265 25.9602 35.5173 24.8186 36.4959 23.3541C37.4744 21.8895 37.9967 20.1676 37.9967 18.4063C37.9967 16.6449 37.4744 14.923 36.4959 13.4585C35.5173 11.9939 34.1265 10.8523 32.4992 10.1782C30.872 9.50401 29.0814 9.3275 27.3538 9.67096C25.6262 10.0144 24.0392 10.8624 22.7936 12.1078L22.7603 12.1434L18.9983 16.5728ZM20.5563 18.4063L24.506 13.756C25.4229 12.8517 26.5868 12.2386 27.8513 11.994C29.1157 11.7493 30.4243 11.8839 31.6124 12.3809C32.8006 12.8779 33.8152 13.715 34.5289 14.7871C35.2426 15.8592 35.6233 17.1184 35.6233 18.4063C35.6233 19.6942 35.2426 20.9533 34.5289 22.0254C33.8152 23.0975 32.8006 23.9346 31.6124 24.4316C30.4243 24.9286 29.1157 25.0632 27.8513 24.8186C26.5868 24.5739 25.4229 23.9608 24.506 23.0565L20.5563 18.4063Z" fill="#E3C496"/>
</svg>
