<svg width="25" height="25" viewBox="0 0 25 25" fill="none" xmlns="http://www.w3.org/2000/svg">
<path d="M17.707 2.08301H7.29037C4.41388 2.08301 2.08203 4.41486 2.08203 7.29134V17.708C2.08203 20.5845 4.41388 22.9163 7.29037 22.9163H17.707C20.5835 22.9163 22.9154 20.5845 22.9154 17.708V7.29134C22.9154 4.41486 20.5835 2.08301 17.707 2.08301Z" stroke="#E3C496" stroke-width="1.25" stroke-linecap="round" stroke-linejoin="round"/>
<path d="M16.6672 11.8436C16.7957 12.7105 16.6477 13.5959 16.244 14.3738C15.8404 15.1517 15.2017 15.7825 14.4189 16.1766C13.636 16.5706 12.7489 16.7077 11.8836 16.5685C11.0183 16.4293 10.219 16.0207 9.5993 15.401C8.97959 14.7813 8.57106 13.982 8.43183 13.1167C8.2926 12.2514 8.42974 11.3643 8.82377 10.5815C9.21779 9.79863 9.84862 9.15997 10.6265 8.75633C11.4044 8.35268 12.2898 8.20461 13.1568 8.33316C14.0411 8.46429 14.8597 8.87635 15.4919 9.50848C16.124 10.1406 16.536 10.9593 16.6672 11.8436Z" stroke="#E3C496" stroke-width="1.25" stroke-linecap="round" stroke-linejoin="round"/>
<path d="M18.2305 6.77051H18.2408" stroke="#E3C496" stroke-width="1.25" stroke-linecap="round" stroke-linejoin="round"/>
</svg>
