<svg width="30" height="30" viewBox="0 0 30 30" fill="none" xmlns="http://www.w3.org/2000/svg">
<path d="M29.9448 17.2211L26.2063 5.74644L15.593 3.70786V2.75017C15.593 2.43422 15.337 2.17783 15.0217 2.17783C14.7051 2.17783 14.4498 2.43422 14.4498 2.75017V3.4876L3.68758 1.4209L0.0503409 14.2903L0.320791 14.3667H0C0 16.1975 1.95468 17.6864 4.35638 17.6864C6.62867 17.6864 8.6219 16.0704 8.70459 14.2001L8.72455 14.1936L8.70837 14.1416C8.70897 14.121 8.71275 14.1011 8.71275 14.0805H8.68902L5.12585 2.86279L14.4492 4.653V25.4556H8.45137L6.57017 28.5794H23.0661L21.6362 25.4556H15.5928V4.87265L24.3933 6.56278L21.9099 17.5073H21.8953C21.8953 19.3376 23.7125 20.8271 25.9487 20.8271C28.1062 20.8271 29.9998 19.1418 29.9998 17.2211H29.9448ZM7.54358 14.254C7.41583 15.368 6.10334 16.5415 4.35577 16.5415C2.71599 16.5415 1.31688 15.6569 1.16041 14.5694L4.21291 3.77105L7.54358 14.254ZM20.9016 26.5988L21.283 27.4352H8.59529L9.099 26.5988H20.9016ZM25.9482 19.6816C24.3949 19.6816 23.1322 18.764 23.0527 17.6166L25.4537 7.12439L28.8239 17.4694C28.6632 18.5607 27.4934 19.6816 25.9482 19.6816Z" fill="#E3C496"/>
</svg>
