<svg width="234" height="40" viewBox="0 0 234 40" fill="none" xmlns="http://www.w3.org/2000/svg">
<path d="M35.2946 0L21.4512 33.2991L7.73242 0H35.2946Z" fill="#E3C496"/>
<path d="M36.541 9.41608V39.9715H23.6953L36.541 9.41608Z" fill="#E3C496"/>
<path d="M6.4863 9.41608V39.9715H19.332L6.4863 9.41608Z" fill="#E3C496"/>
<path d="M43.0279 39.9714H38.9746V21.077L43.0279 14.5918V39.9714Z" fill="#E3C496"/>
<path d="M0.00142241 39.9714H4.05469V21.077L0.00142241 14.5918V39.9714Z" fill="#E3C496"/>
<path d="M86.762 8.2163H86.8296L88.7912 33.1752H83.2448L82.3316 22.894H82.264L75.331 32.3973H75.2633L68.3641 22.894H68.2965L67.3495 33.1752H61.8031L63.7985 8.2163H63.8661L75.2972 24.4835L86.762 8.2163ZM115.839 33.1752H109.886L108.297 29.5903H98.523L96.9335 33.1752H90.9813L103.393 8.2163H103.461L115.839 33.1752ZM103.427 18.5989L100.654 24.8555H106.2L103.427 18.5989ZM118.386 8.82505H129.445C131.813 8.82505 133.74 9.6029 135.228 11.1248C136.716 12.6467 137.46 14.6082 137.46 16.9418C137.46 19.3091 136.716 21.2707 135.228 22.8264C133.74 24.3483 131.813 25.1261 129.445 25.1261H124V33.1752H118.386V8.82505ZM124 20.4252H128.6V20.459C130.629 20.459 131.846 18.9033 131.846 16.9756C131.846 15.1155 130.73 13.4922 128.6 13.4922H124V20.4252ZM140.813 33.7839H140.745V8.82505H146.36L146.292 22.1838H146.36L162.39 8.2163H162.458V33.1752H156.844L156.911 19.8164H156.844L140.813 33.7839ZM173.112 8.2163C177.001 8.2163 180.147 9.39999 182.615 11.7335C185.084 14.0671 186.336 17.1785 186.336 21.0001C186.336 24.8217 185.084 27.9331 182.615 30.2667C180.147 32.6002 177.001 33.7839 173.112 33.7839C170.88 33.7839 168.682 33.3781 166.517 32.5326V26.7156C168.58 27.8317 170.643 28.3728 172.774 28.3728C176.528 28.3728 179.2 26.5803 180.147 23.4689H170.17V18.5651H180.147C179.2 15.3861 176.528 13.6274 172.774 13.6274C170.643 13.6274 168.58 14.1686 166.517 15.2846V9.46763C168.682 8.62214 170.88 8.2163 173.112 8.2163ZM191.354 8.82505H211.037V33.1752H205.423V13.7289H196.968V25.8025C196.968 30.2667 195.683 33.581 191.05 33.581C189.9 33.581 188.885 33.3781 187.972 33.0061V28.0684C188.547 28.3728 189.088 28.5081 189.596 28.5081C191.32 28.5081 191.354 27.1553 191.354 26.2083V8.82505ZM214.018 8.82505H232.754V13.7289H226.193V33.1752H220.579V13.7289H214.018V8.82505Z" fill="white"/>
</svg>
