<svg width="601" height="114" viewBox="0 0 601 114" fill="none" xmlns="http://www.w3.org/2000/svg">
<path d="M236.5 29.0913H236.705L242.636 104.558H225.866L223.105 73.4712H222.9L201.937 102.206H201.733L180.872 73.4712H180.668L177.804 104.558H161.034L167.067 29.0913H167.272L201.835 78.2773L236.5 29.0913ZM322.561 104.558H304.563L299.757 93.7182H270.205L265.399 104.558H247.401L284.93 29.0913H285.134L322.561 104.558ZM285.032 60.4844L276.647 79.4021H293.417L285.032 60.4844ZM370.183 75.005L386.442 104.558H367.115L346.254 65.3928H346.356H356.787C364.661 65.3928 368.444 62.3251 368.444 55.2693C368.444 48.009 364.661 45.0435 356.787 45.0435H345.641V104.558H328.666V30.9319H362.309C369.262 30.9319 374.784 33.1816 378.977 37.5787C383.169 41.9758 385.214 47.9067 385.214 55.2693C385.214 64.7792 380.204 72.0396 370.183 75.005ZM396.871 30.9319H413.437V104.558H396.871V30.9319ZM428.627 30.9319H480.063V45.7593H445.602V60.2799H476.075V75.1073H445.602V89.7302H480.063V104.558H428.627V30.9319ZM492.738 30.9319H509.304V89.7302H541.003V104.558H492.738V30.9319ZM542.924 30.9319H599.575V45.7593H579.737V104.558H562.762V45.7593H542.924V30.9319Z" fill="white"/>
<path d="M100.483 0L61.0715 94.8015L22.0146 0H100.483Z" fill="#E3C496"/>
<path d="M104.034 26.8072V113.797H67.4624L104.034 26.8072Z" fill="#E3C496"/>
<path d="M18.4638 26.8072V113.797H55.0352L18.4638 26.8072Z" fill="#E3C496"/>
<path d="M122.497 113.797H110.958V60.0055L122.497 41.5422V113.797Z" fill="#E3C496"/>
<path d="M0.000527382 113.797H11.54V60.0055L0.000527382 41.5422V113.797Z" fill="#E3C496"/>
</svg>
