<svg width="38" height="38" viewBox="0 0 38 38" fill="none" xmlns="http://www.w3.org/2000/svg">
<g clip-path="url(#clip0_1515_28)">
<path d="M19.5 4.86165C19.343 4.78859 19.172 4.75073 18.9989 4.75073C18.8257 4.75073 18.6547 4.78859 18.4977 4.86165L0.685241 13.1741C0.475487 13.2721 0.298919 13.4291 0.177255 13.6261C0.0555901 13.823 -0.0058672 14.0512 0.00044121 14.2826C0.00674962 14.514 0.0805487 14.7385 0.212762 14.9285C0.344976 15.1185 0.529839 15.2657 0.744616 15.352L18.5571 22.477C18.8407 22.5907 19.1571 22.5907 19.4406 22.477L33.2489 16.9575V30.875C32.619 30.875 32.0149 31.1252 31.5695 31.5706C31.1241 32.016 30.8739 32.6201 30.8739 33.25V38H37.9989V33.25C37.9989 32.6201 37.7486 32.016 37.3032 31.5706C36.8578 31.1252 36.2538 30.875 35.6239 30.875V16.0051L37.2531 15.352C37.4679 15.2657 37.6528 15.1185 37.785 14.9285C37.9172 14.7385 37.991 14.514 37.9973 14.2826C38.0036 14.0512 37.9421 13.823 37.8205 13.6261C37.6988 13.4291 37.5222 13.2721 37.3125 13.1741L19.5 4.86165ZM18.9989 20.0925L4.17412 14.1669L18.9989 7.24852L33.8236 14.1669L18.9989 20.0925Z" fill="#E3C496"/>
<path d="M9.91855 21.451C9.76564 21.3934 9.60248 21.368 9.4393 21.3763C9.27611 21.3846 9.1164 21.4266 8.97015 21.4995C8.82391 21.5724 8.69429 21.6747 8.5894 21.8C8.48451 21.9252 8.4066 22.0708 8.36055 22.2276L7.17305 26.2651C7.08987 26.5486 7.11532 26.8528 7.24443 27.1185C7.37355 27.3842 7.59705 27.5922 7.8713 27.702L18.5588 31.977C18.8423 32.0906 19.1588 32.0906 19.4423 31.977L30.1298 27.702C30.4041 27.5922 30.6276 27.3842 30.7567 27.1185C30.8858 26.8528 30.9112 26.5486 30.828 26.2651L29.6405 22.2276C29.5945 22.0708 29.5166 21.9252 29.4117 21.8C29.3068 21.6747 29.1772 21.5724 29.0309 21.4995C28.8847 21.4266 28.725 21.3846 28.5618 21.3763C28.3986 21.368 28.2355 21.3934 28.0826 21.451L19.0006 24.8567L9.91855 21.451ZM9.75705 25.8994L10.2796 24.1229L18.5826 27.2365C18.852 27.3378 19.1491 27.3378 19.4185 27.2365L27.7215 24.1229L28.2441 25.8994L19.0006 29.5925L9.75705 25.8994Z" fill="#E3C496"/>
</g>
<defs>
<clipPath id="clip0_1515_28">
<rect width="38" height="38" fill="white"/>
</clipPath>
</defs>
</svg>
