<svg width="23" height="23" viewBox="0 0 23 23" fill="none" xmlns="http://www.w3.org/2000/svg">
<path d="M8.89364 17.9532C9.94548 17.0853 11.501 15.5126 11.501 15.5126C11.501 15.5126 12.9903 16.8364 14.0245 17.8705C15.0586 18.9047 16.5064 17.5396 15.4309 16.4641C15.224 16.2572 13.9141 14.9335 13.6521 14.6439C16.2996 14.1061 15.555 12.2446 14.5208 12.2446C13.9268 12.2446 12.7706 12.9892 11.501 12.9892C10.2187 12.9892 9.07532 12.2446 8.48124 12.2446C7.44707 12.2446 6.70246 14.1061 9.34995 14.6439C9.08796 14.9335 8.02498 16.0503 7.61122 16.4641C6.57707 17.4982 7.8418 18.8211 8.89364 17.9532Z" stroke="#E3C496" stroke-width="0.922234" stroke-linejoin="round"/>
<circle cx="11.5" cy="11.5" r="11.0389" stroke="#E3C496" stroke-width="0.922234"/>
<path d="M15.0914 7.4872C15.0914 9.44862 13.5014 11.0387 11.5399 11.0387C9.57851 11.0387 7.98846 9.44862 7.98846 7.4872C7.98846 5.52577 9.57851 3.93573 11.5399 3.93573C13.5014 3.93573 15.0914 5.52577 15.0914 7.4872Z" stroke="#E3C496" stroke-width="0.922234"/>
<circle cx="11.5426" cy="7.48743" r="1.56586" stroke="#E3C496" stroke-width="0.922234"/>
</svg>
