<svg width="39" height="39" viewBox="0 0 39 39" fill="none" xmlns="http://www.w3.org/2000/svg">
<path d="M34.125 34.125V10.9688L23.1562 0H9.75C8.45707 0 7.21709 0.513615 6.30285 1.42785C5.38861 2.34209 4.875 3.58207 4.875 4.875V34.125C4.875 35.4179 5.38861 36.6579 6.30285 37.5721C7.21709 38.4864 8.45707 39 9.75 39H29.25C30.5429 39 31.7829 38.4864 32.6971 37.5721C33.6114 36.6579 34.125 35.4179 34.125 34.125ZM23.1562 7.3125C23.1562 8.2822 23.5415 9.21218 24.2271 9.89786C24.9128 10.5835 25.8428 10.9688 26.8125 10.9688H31.6875V34.125C31.6875 34.7715 31.4307 35.3915 30.9736 35.8486C30.5165 36.3057 29.8965 36.5625 29.25 36.5625H9.75C9.10353 36.5625 8.48355 36.3057 8.02643 35.8486C7.56931 35.3915 7.3125 34.7715 7.3125 34.125V4.875C7.3125 4.22853 7.56931 3.60855 8.02643 3.15143C8.48355 2.69431 9.10353 2.4375 9.75 2.4375H23.1562V7.3125Z" fill="#868686"/>
<path d="M11.2192 34.3372C10.7441 34.1471 10.3613 33.7801 10.1516 33.3134C9.67624 32.3677 9.83468 31.4219 10.3466 30.6273C10.8292 29.879 11.6287 29.2428 12.533 28.709C13.6785 28.0593 14.8893 27.5323 16.1454 27.1368C17.1208 25.3832 17.9854 23.5702 18.734 21.7085C18.2864 20.6915 17.9355 19.6346 17.6859 18.5519C17.4762 17.5769 17.3958 16.6117 17.5737 15.7829C17.7566 14.92 18.2416 14.1449 19.1581 13.7768C19.6261 13.5892 20.1331 13.4843 20.6255 13.5892C20.8732 13.6419 21.106 13.7491 21.3071 13.903C21.5082 14.0568 21.6725 14.2536 21.7882 14.4788C22.0027 14.8786 22.0807 15.3466 22.0977 15.7902C22.1148 16.2485 22.0685 16.7555 21.9832 17.2868C21.7784 18.53 21.3251 20.051 20.7157 21.6597C21.3882 23.0979 22.1876 24.4732 23.1044 25.7693C24.1894 25.6837 25.2806 25.7246 26.3561 25.8912C27.2433 26.0521 28.1452 26.3665 28.6961 27.0247C28.9886 27.3757 29.1665 27.8047 29.1836 28.2873C29.2006 28.7553 29.069 29.2184 28.8472 29.6596C28.655 30.0684 28.3571 30.4185 27.9843 30.6736C27.6158 30.914 27.1807 31.0317 26.7412 31.01C25.9344 30.9758 25.1471 30.5322 24.467 29.9935C23.64 29.3098 22.8949 28.5328 22.2464 27.6779C20.5981 27.865 18.9693 28.1961 17.3787 28.6675C16.6504 29.9593 15.8189 31.1902 14.8925 32.3482C14.1807 33.2013 13.4081 33.9472 12.6329 34.2665C12.1876 34.4679 11.6824 34.4932 11.2192 34.3372ZM14.5805 29.7035C14.1759 29.8887 13.8005 30.0837 13.4617 30.2836C12.6622 30.7565 12.143 31.2172 11.8846 31.6169C11.6555 31.9703 11.6506 32.2263 11.7871 32.4968C11.8115 32.5505 11.8359 32.5846 11.8505 32.6041C11.8796 32.5963 11.9081 32.5866 11.9358 32.5748C12.2697 32.4383 12.8011 32.002 13.4836 31.1806C13.8718 30.7054 14.2378 30.2125 14.5805 29.7035ZM18.578 26.4616C19.3919 26.2716 20.2132 26.1147 21.0399 25.9912C20.596 25.312 20.1813 24.6142 19.7967 23.8998C19.4144 24.7641 19.008 25.6176 18.578 26.4592V26.4616ZM24.5401 27.5585C24.9057 27.9558 25.2616 28.2897 25.6004 28.5578C26.1854 29.021 26.5925 29.1745 26.8143 29.1818C26.8737 29.1896 26.9339 29.1767 26.9849 29.1453C27.0863 29.0652 27.1653 28.9602 27.2141 28.8406C27.3007 28.6921 27.3501 28.5248 27.3579 28.3531C27.3565 28.2958 27.3339 28.2411 27.2945 28.1995C27.1677 28.0484 26.807 27.829 26.0319 27.6901C25.5388 27.6076 25.04 27.5644 24.5401 27.5609V27.5585ZM19.6895 19.0126C19.8946 18.3509 20.0575 17.6768 20.177 16.9943C20.2526 16.5361 20.2818 16.1583 20.2696 15.8609C20.2703 15.6968 20.2439 15.5338 20.1916 15.3783C20.0697 15.3934 19.9506 15.4262 19.8382 15.4758C19.6261 15.5611 19.4531 15.7342 19.3604 16.1656C19.2629 16.6336 19.2873 17.3088 19.4726 18.1692C19.5311 18.4398 19.6042 18.7225 19.6919 19.0126H19.6895Z" fill="#868686"/>
</svg>
