<svg width="38" height="38" viewBox="0 0 38 38" fill="none" xmlns="http://www.w3.org/2000/svg">
<path d="M19 1.18761C14.1194 1.03392 9.37727 2.8234 5.81492 6.16311C2.25257 9.50281 0.161188 14.1197 0 19.0001C0.161188 23.8805 2.25257 28.4974 5.81492 31.8371C9.37727 35.1768 14.1194 36.9663 19 36.8126C23.8806 36.9663 28.6227 35.1768 32.1851 31.8371C35.7474 28.4974 37.8388 23.8805 38 19.0001C37.8388 14.1197 35.7474 9.50281 32.1851 6.16311C28.6227 2.8234 23.8806 1.03392 19 1.18761ZM34.9362 17.3376L32.015 16.6251C31.4212 16.4589 31.3737 16.4114 31.3262 16.3401C30.97 15.8651 30.5662 15.2239 30.1863 14.6064C30.1863 14.3926 29.8775 14.0601 29.8062 13.8701C29.735 13.6801 30.6375 12.4451 31.0175 11.8751C31.4271 11.4492 31.8997 11.0888 32.4188 10.8064C33.7997 12.7339 34.6662 14.9819 34.9362 17.3376ZM19 4.15636L18.7862 4.56011C18.765 4.48236 18.765 4.40035 18.7862 4.32261C18.7862 4.46511 18.43 4.67886 18.1925 4.91636L17.48 5.60511C17.1551 5.94387 16.9583 6.38529 16.9236 6.85343C16.889 7.32157 17.0185 7.78716 17.29 8.17011H17.005C16.63 8.18094 16.2622 8.27627 15.9291 8.44898C15.596 8.62169 15.3062 8.86733 15.0813 9.16761C14.8187 9.5295 14.6398 9.94525 14.5577 10.3848C14.4755 10.8243 14.4921 11.2765 14.6062 11.7089V11.8751C14.2598 11.9369 13.9185 12.0242 13.585 12.1364L13.015 12.3264L11.495 12.8251C11.0421 12.9578 10.6292 13.2008 10.2935 13.5325C9.95769 13.8641 9.70953 14.2739 9.57125 14.7251C9.46079 15.1038 9.44637 15.504 9.52929 15.8896C9.61222 16.2752 9.78989 16.6341 10.0463 16.9339C10.9975 17.962 12.1033 18.8354 13.3238 19.5226C14.5183 20.3185 15.8717 20.8453 17.29 21.0664H21.28C21.7605 21.0434 22.2389 21.1424 22.6708 21.3542C23.1027 21.566 23.474 21.8837 23.75 22.2776C23.8792 22.4109 23.9746 22.5731 24.0283 22.7508C24.082 22.9284 24.0925 23.1163 24.0588 23.2989C24.0115 23.6014 23.889 23.8872 23.7025 24.1301C22.5207 25.0967 21.721 26.452 21.4462 27.9539C21.1386 29.0702 20.7578 30.1651 20.3062 31.2314C20.0212 31.9676 19.76 32.6801 19.57 33.2501C18.7733 33.3074 17.9725 33.2434 17.195 33.0601C17.3843 31.2955 16.9653 29.5192 16.0075 28.0251C15.2088 27.0814 14.7637 25.8889 14.7487 24.6526C14.9022 23.4798 14.636 22.2906 13.997 21.2952C13.3581 20.2999 12.3877 19.5626 11.2575 19.2139C8.59859 17.5613 6.26435 15.4363 4.37 12.9439C5.7425 10.2573 7.84109 8.00957 10.4273 6.45618C13.0135 4.90278 15.9836 4.10599 19 4.15636ZM2.96875 19.0001C2.9683 18.0744 3.06381 17.1511 3.25375 16.2451C5.20341 18.5787 7.57145 20.5279 10.2362 21.9926C11.6613 22.5151 11.875 23.0614 11.875 24.6526C11.8803 26.6378 12.6061 28.5535 13.9175 30.0439C14.2677 31.0741 14.3814 32.17 14.25 33.2501C11.0759 32.4246 8.25738 30.5868 6.22165 28.0154C4.18592 25.4439 3.04393 22.279 2.96875 19.0001ZM22.7287 33.4401C22.7287 33.0839 23.0138 32.6801 23.1562 32.3001C23.6961 31.0718 24.1331 29.8008 24.4625 28.5001C24.6485 27.6946 25.1003 26.9751 25.745 26.4576C26.5761 25.6406 27.0609 24.535 27.0987 23.3701C27.1279 22.8178 27.0439 22.2654 26.8519 21.7468C26.66 21.2281 26.3641 20.7541 25.9825 20.3539C25.4113 19.653 24.6845 19.095 23.86 18.7239C23.0355 18.3529 22.1359 18.1791 21.2325 18.2164H17.4562C15.6825 17.7359 14.0523 16.8311 12.7063 15.5801L13.8225 15.2001L14.4638 15.0101C14.7462 14.8808 15.0563 14.8237 15.3662 14.8439L15.58 15.2001C15.7577 15.5334 16.0532 15.7886 16.4089 15.916C16.7645 16.0433 17.1548 16.0336 17.5037 15.8889C17.8492 15.7277 18.1227 15.4445 18.2718 15.0937C18.4209 14.7429 18.4349 14.3494 18.3113 13.9889V13.5614C18.05 12.8489 17.7412 11.8514 17.5513 11.1864C18.1673 11.2122 18.7786 11.0687 19.3188 10.7714C19.8589 10.4741 20.3073 10.0344 20.615 9.50011C20.7624 9.10215 20.8006 8.67195 20.7254 8.25427C20.6502 7.83658 20.4645 7.44668 20.1875 7.12511C20.467 6.87427 20.7289 6.60447 20.9713 6.31761C21.1892 6.05675 21.3487 5.75214 21.4389 5.42435C21.529 5.09657 21.5477 4.75325 21.4937 4.41761C24.8134 4.90628 27.9044 6.39791 30.3525 8.69261C29.6337 9.13153 28.9985 9.69441 28.4762 10.3551C27.9104 11.1819 27.4026 12.0469 26.9563 12.9439C26.7647 13.4975 26.7164 14.0906 26.8161 14.6679C26.9158 15.2452 27.1601 15.7878 27.5263 16.2451C27.9538 16.9814 28.4287 17.6939 28.8562 18.2876C29.4455 19.0303 30.294 19.5224 31.2312 19.6651C31.7537 19.8076 33.6063 20.1876 34.9125 20.4489C34.4925 23.6154 33.0917 26.5709 30.9066 28.9008C28.7215 31.2307 25.8618 32.8181 22.7287 33.4401Z" fill="#E3C496"/>
</svg>
