<svg width="30" height="30" viewBox="0 0 30 30" fill="none" xmlns="http://www.w3.org/2000/svg">
<g clip-path="url(#clip0_2038_55)">
<path d="M7.43185 21.2405C6.97057 21.2405 6.59535 20.8653 6.59535 20.404C6.59535 19.9427 6.97064 19.5675 7.43185 19.5675H7.64352C7.98804 19.5675 8.26834 19.8478 8.26834 20.1923C8.26834 20.498 8.51618 20.7459 8.82188 20.7459C9.12757 20.7459 9.37541 20.498 9.37541 20.1923C9.37541 19.2374 8.59847 18.4604 7.64352 18.4604H7.43185C6.36013 18.4604 5.48828 19.3323 5.48828 20.404C5.48828 21.4757 6.36013 22.3476 7.43185 22.3476C7.89312 22.3476 8.26834 22.7228 8.26834 23.1841C8.26834 23.6454 7.89312 24.0205 7.43185 24.0205H7.22017C6.87566 24.0205 6.59535 23.7403 6.59535 23.3957C6.59535 23.09 6.34751 22.8422 6.04181 22.8422C5.73612 22.8422 5.48828 23.09 5.48828 23.3957C5.48828 24.3507 6.26522 25.1276 7.22017 25.1276H7.43185C8.50356 25.1276 9.37541 24.2557 9.37541 23.1841C9.37541 22.1124 8.50356 21.2405 7.43185 21.2405Z" fill="#E3C496"/>
<path d="M19.2046 23.2477C18.8989 23.2477 18.6511 23.4955 18.6511 23.8012V24.0211H16.9782V19.0145C16.9782 18.7088 16.7303 18.4609 16.4246 18.4609C16.1189 18.4609 15.8711 18.7088 15.8711 19.0145V24.5745C15.8711 24.8802 16.1189 25.1281 16.4246 25.1281H19.2046C19.5103 25.1281 19.7581 24.8802 19.7581 24.5745V23.8011C19.7581 23.4954 19.5103 23.2477 19.2046 23.2477Z" fill="#E3C496"/>
<path d="M23.9586 20.4941C24.2643 20.4941 24.5121 20.2462 24.5121 19.9405V19.014C24.5121 18.7083 24.2643 18.4604 23.9586 18.4604H21.1785C20.8728 18.4604 20.625 18.7083 20.625 19.014V24.574C20.625 24.8797 20.8728 25.1276 21.1785 25.1276H23.9586C24.2643 25.1276 24.5121 24.8797 24.5121 24.574V23.8006C24.5121 23.4949 24.2643 23.2471 23.9586 23.2471C23.6529 23.2471 23.4051 23.4949 23.4051 23.8006V24.0205H21.7321V22.3476H22.7468C23.0525 22.3476 23.3003 22.0997 23.3003 21.794C23.3003 21.4883 23.0525 21.2405 22.7468 21.2405H21.7321V19.5675H23.4051V19.9405C23.4051 20.2463 23.6529 20.4941 23.9586 20.4941Z" fill="#E3C496"/>
<path d="M12.4763 18.4966C11.4146 18.4966 10.5508 19.3604 10.5508 20.4221V24.5383C10.5508 24.844 10.7986 25.0918 11.1043 25.0918C11.41 25.0918 11.6578 24.844 11.6578 24.5383V23.2388H13.2948V24.5383C13.2948 24.844 13.5427 25.0918 13.8484 25.0918C14.1541 25.0918 14.4019 24.844 14.4019 24.5383V20.4221C14.4019 19.3604 13.5381 18.4966 12.4763 18.4966ZM13.2948 22.1317H11.6578V20.4221C11.6578 19.9708 12.025 19.6036 12.4763 19.6036C12.9277 19.6036 13.2948 19.9708 13.2948 20.4221V22.1317Z" fill="#E3C496"/>
<path d="M26.6294 14.322H24.1301L16.9284 4.86947C17.2963 4.43159 17.5184 3.86728 17.5184 3.2519C17.5184 1.8632 16.3886 0.733398 14.9999 0.733398C13.6112 0.733398 12.4814 1.8632 12.4814 3.2519C12.4814 3.86743 12.7037 4.43181 13.0718 4.86976L5.86973 14.322H3.37057C1.51203 14.322 0 15.834 0 17.6925V25.8961C0 27.7547 1.51203 29.2667 3.37057 29.2667H26.6294C28.488 29.2667 30 27.7547 30 25.8961V17.6925C30 15.834 28.488 14.322 26.6294 14.322ZM15 1.84054C15.7783 1.84054 16.4114 2.47371 16.4114 3.25197C16.4114 4.03024 15.7783 4.66341 15 4.66341C14.2217 4.66341 13.5886 4.03024 13.5886 3.25197C13.5886 2.47371 14.2217 1.84054 15 1.84054ZM13.9521 5.54116C14.2715 5.68796 14.6262 5.7704 15 5.7704C15.374 5.7704 15.7288 5.68781 16.0482 5.54102L22.7383 14.322H7.26154L13.9521 5.54116ZM28.8929 25.896C28.8929 27.1441 27.8775 28.1595 26.6294 28.1595H3.37057C2.12247 28.1595 1.10707 27.1441 1.10707 25.896V17.6925C1.10707 16.4444 2.12247 15.429 3.37057 15.429H26.6294C27.8775 15.429 28.8929 16.4444 28.8929 17.6925V25.896Z" fill="#E3C496"/>
</g>
<defs>
<clipPath id="clip0_2038_55">
<rect width="30" height="30" fill="white"/>
</clipPath>
</defs>
</svg>
