<svg width="28" height="21" viewBox="0 0 28 21" fill="none" xmlns="http://www.w3.org/2000/svg">
<path d="M0.0820312 3.4738C0.0820312 2.37362 0.792969 1.93934 1.66797 1.88143L5.74219 1.91039C5.98828 1.91039 6.20703 2.0841 6.28906 2.34467C7.21875 5.52941 8.36719 7.49816 9.73438 9.72748C9.81641 9.90119 9.95312 9.98805 10.0898 9.98805C10.1992 9.98805 10.3086 9.93015 10.3906 9.78539L10.4727 9.46691L10.5 4.45818C10.5 3.73437 10.1719 3.61857 9.40625 3.50276C9.10547 3.44485 8.91406 3.15533 8.91406 2.86581C8.91406 2.8079 8.91406 2.75 8.94141 2.6921C9.32422 1.44715 10.5273 0.810202 12.2227 0.810202L13.7539 0.78125C15.0117 0.78125 16.1602 1.36029 16.1602 3.06847V9.64062C16.2695 9.72748 16.3789 9.78539 16.5156 9.78539C16.7344 9.78539 17.0078 9.64062 17.2266 9.26425C18.6484 7.15073 20.2617 4.63189 20.4805 3.30009C20.4805 3.24219 20.5078 3.21324 20.5352 3.15533C20.8359 2.51838 21.6016 2.0841 21.9297 1.96829C21.9844 1.93934 22.0664 1.91039 22.1758 1.91039H26.4141L26.6875 1.93934C27.0977 1.93934 27.3984 2.22886 27.5352 2.48943C27.7812 2.89476 27.7266 3.32904 27.7539 3.50276V3.70542C27.3438 6.34007 24.5 9.2932 23.2969 11.204C23.1328 11.4357 23.0508 11.6383 23.0508 11.841C23.0508 12.0147 23.1328 12.1884 23.2695 12.3621L27.2617 17.6893C27.4805 18.0078 27.5898 18.3842 27.5898 18.7027C27.5898 19.6581 26.7422 20.2082 25.9219 20.295L25.457 20.324H21.3008C21.2188 20.324 21.1641 20.3529 21.082 20.3529C20.6172 20.3529 20.2344 20.0924 19.9609 19.8028C19.0859 18.6737 18.2383 17.5156 17.3906 16.3865C17.2266 16.1549 17.1719 16.1259 17.0078 16.0101C16.8164 16.8497 16.6523 17.7183 16.4609 18.5869L16.3789 19.079C16.2422 19.6002 15.8867 20.1503 15.2305 20.295L14.8477 20.324H12.168C7.4375 20.324 3.19922 13.2017 0.21875 4.31342C0.136719 4.0818 0.0820312 3.76333 0.0820312 3.4738ZM16.5156 10.9724C15.8047 10.9724 15.0117 10.5381 15.0117 9.72748V3.06847C15.0117 2.28676 14.6836 1.99724 13.7812 1.99724L12.2227 2.05515C11.3477 2.05515 10.8555 2.19991 10.4453 2.48943C11.0742 2.8079 11.6484 3.24219 11.6484 4.45818V9.55377C11.5664 10.5671 10.7734 11.233 10.0078 11.233C9.48828 11.233 9.02344 10.9145 8.75 10.3934C7.51953 8.42463 6.48047 6.57169 5.57812 3.90809L5.33203 3.15533L1.69531 3.12638C1.20312 3.12638 1.25781 3.15533 1.25781 3.4159C1.25781 3.58961 1.28516 3.82123 1.3125 3.96599L1.88672 5.58732C4.86719 13.7518 8.61328 19.108 12.168 19.108H14.9023C15.2852 19.108 15.2578 18.6158 15.3398 18.3263L15.8594 15.7785C15.9688 15.5179 16.0508 15.2863 16.2422 15.0836C16.4609 14.852 16.707 14.7652 16.9531 14.7652C17.4727 14.7652 17.9648 15.1994 18.293 15.6048L20.6172 18.7316C20.8086 19.0501 20.9727 19.108 21.082 19.108H25.5938C26.0312 19.108 26.4141 18.9632 26.4141 18.6737C26.4141 18.5869 26.3867 18.471 26.332 18.3842L22.3672 13.1438C22.0391 12.7096 21.9023 12.2753 21.9023 11.841C21.9023 11.3778 22.0664 10.9145 22.3398 10.5092C23.4883 8.6852 25.9492 6.0795 26.5234 3.93704L26.6055 3.56066C26.5781 3.4159 26.5781 3.30009 26.5508 3.15533H22.2578C21.9844 3.27114 21.7656 3.44485 21.6016 3.67647L21.4375 4.22656C20.8086 6.0795 19.0859 8.6273 17.8555 10.3934C17.4453 10.7987 16.9805 10.9724 16.5156 10.9724Z" fill="#E3C496"/>
</svg>
