<svg width="32" height="32" viewBox="0 0 32 32" fill="none" xmlns="http://www.w3.org/2000/svg">
<path d="M26.2295 0.571429L16.2172 26.5714L15.8466 25.6002L6.29508 0.571429H25.4849H26.2295Z" fill="#2C2C2C"/>
<path d="M27.2787 8V32H17.8361L18.0609 31.4286L26.7541 9.33333L27.2787 8Z" fill="#2C2C2C"/>
<path d="M5.5082 8V9.42857V31.4286V32H14.9508L5.5082 8Z" fill="#2C2C2C"/>
<path d="M32 32H29.1148V31.4286V17.1106L31.4754 12.9292L32 12V32Z" fill="#2C2C2C"/>
<path d="M0.52459 32H3.40984V17.1106L0.52459 12V12.3578V31.4286V32Z" fill="#2C2C2C"/>
<path d="M25.7049 0L25.4849 0.571429L15.8466 25.6002L15.6926 26L5.77049 0H25.7049Z" fill="#E3C496"/>
<path d="M26.7541 7.42857V9.33333V31.4286H18.0609H17.3115L26.7541 7.42857Z" fill="#E3C496"/>
<path d="M4.72131 7.42857V31.4286H5.5082H14.1639L5.5082 9.42857L4.72131 7.42857Z" fill="#E3C496"/>
<path d="M31.4754 31.4286H29.1148H28.5902V16.5391L31.4754 11.4286V12.9292V31.4286Z" fill="#E3C496"/>
<path d="M0 31.4286H0.52459H2.88525V16.5391L0.52459 12.3578L0 11.4286V31.4286Z" fill="#E3C496"/>
<path d="M0.52459 12.3578V12L0 11.4286L0.52459 12.3578Z" fill="#2C2C2C"/>
<path d="M5.5082 9.42857V8L4.72131 7.42857L5.5082 9.42857Z" fill="#2C2C2C"/>
<path d="M25.4849 0.571429H26.2295L25.7049 0L25.4849 0.571429Z" fill="#2C2C2C"/>
<path d="M26.7541 9.33333L27.2787 8L26.7541 7.42857V9.33333Z" fill="#2C2C2C"/>
<path d="M31.4754 12.9292L32 12L31.4754 11.4286V12.9292Z" fill="#2C2C2C"/>
<path d="M29.1148 32V31.4286H28.5902L29.1148 32Z" fill="#2C2C2C"/>
<path d="M5.5082 31.4286H4.72131L5.5082 32V31.4286Z" fill="#2C2C2C"/>
<path d="M0.52459 31.4286H0L0.52459 32V31.4286Z" fill="#2C2C2C"/>
<path d="M18.0609 31.4286H17.3115L17.8361 32L18.0609 31.4286Z" fill="#2C2C2C"/>
<path d="M16.2172 26.5714L15.8466 25.6002L15.6926 26L16.2172 26.5714Z" fill="#2C2C2C"/>
</svg>
